<svg width="48" height="48" viewBox="0 0 48 48" fill="none" xmlns="http://www.w3.org/2000/svg">
<path fill-rule="evenodd" clip-rule="evenodd" d="M24 8.00049C21.6074 8.00166 19.2455 8.53942 17.0882 9.57418C14.9309 10.6089 13.0331 12.1144 11.5346 13.9796C10.0361 15.8448 8.97494 18.0224 8.42935 20.352C7.88376 22.6816 7.86759 25.1039 8.38202 27.4406C8.89644 29.7773 9.92838 31.9688 11.4019 33.8539C12.8753 35.739 14.7528 37.2696 16.8961 38.3331C19.0394 39.3966 21.3939 39.9658 23.7863 39.999C26.1787 40.0321 28.5481 39.5282 30.72 38.5245C31.2014 38.3012 31.7517 38.2782 32.25 38.4607C32.7483 38.6432 33.1537 39.0161 33.377 39.4975C33.6003 39.9789 33.6233 40.5292 33.4408 41.0275C33.2583 41.5258 32.8854 41.9312 32.404 42.1545C29.7705 43.3743 26.9023 44.0044 24 44.0005C12.954 44.0005 4 35.0465 4 24.0005C4 12.9545 12.954 4.00049 24 4.00049C35.046 4.00049 44 12.9545 44 24.0005V24.0385C43.916 28.4185 42.52 31.3685 40.466 33.1985C38.458 34.9865 36.08 35.4745 34.42 35.4745C32.036 35.4745 29.942 34.2345 28.744 32.3665C24.592 36.0365 18.604 36.8445 14.908 32.7365C11.056 28.4565 12.13 21.3105 16.24 16.7445C20.216 12.3265 27.446 10.6205 31.596 15.7325C31.776 15.2488 32.1361 14.8534 32.6009 14.629C33.0656 14.4046 33.5992 14.3686 34.0899 14.5285C34.5806 14.6884 34.9906 15.0318 35.234 15.4869C35.4774 15.942 35.5354 16.4736 35.396 16.9705C34.212 21.1225 32.816 25.2365 31.77 29.4245C31.9227 30.0112 32.2656 30.5308 32.7452 30.9017C33.2247 31.2727 33.8137 31.4741 34.42 31.4745C35.38 31.4745 36.716 31.1825 37.806 30.2125C38.846 29.2865 39.93 27.5045 40 23.9825C39.9952 19.7421 38.3074 15.6771 35.3074 12.6804C32.3073 9.68372 28.2403 8.00049 24 8.00049V8.00049ZM28.706 25.8285C28.846 25.3485 29.212 24.0665 29.64 22.5725C30.106 20.9325 29.5 19.3605 28.224 17.9405C26.384 15.8985 22.44 15.8345 19.214 19.4205C15.968 23.0245 15.85 27.8025 17.882 30.0605C19.72 32.1025 23.664 32.1665 26.892 28.5805C27.638 27.7525 28.34 26.8925 28.706 25.8285V25.8285Z" fill="black"/>
</svg>
