<svg width="48" height="48" viewBox="0 0 48 48" fill="none" xmlns="http://www.w3.org/2000/svg">
<path fill-rule="evenodd" clip-rule="evenodd" d="M42 11.916C42.018 13.13 41.866 14.652 41.732 15.762C41.6895 16.1287 41.6227 16.4922 41.532 16.85C43.244 20.02 44 23.834 44 28C44 32.936 41.626 37.002 37.928 39.774C34.264 42.52 29.32 44 24 44C18.68 44 13.736 42.52 10.072 39.774C6.374 37.002 4 32.936 4 28C4 23.834 4.754 20.02 6.47 16.85C6.3793 16.4922 6.31249 16.1287 6.27 15.762C6.132 14.652 5.98 13.13 6 11.916C6.02 10.55 6.2 9.18402 6.398 7.82802C6.49 7.20002 6.634 6.61002 7.316 6.23802C8.012 5.85802 8.744 5.99802 9.466 6.20402C11.902 6.89402 14.186 7.86402 16.334 9.02402C18.6 8.34602 21.156 8.00002 24 8.00002C26.844 8.00002 29.4 8.34602 31.664 9.02602C33.8421 7.83523 36.1455 6.88946 38.532 6.20602C39.254 6.00002 39.988 5.85802 40.682 6.23802C41.362 6.61002 41.508 7.20002 41.602 7.82802C41.798 9.18402 41.98 10.55 42 11.916ZM40 28C40 24.626 39.224 20 35 20C33.096 20 31.294 20.5 29.494 21C27.696 21.5 25.9 22 24 22C22.1 22 20.304 21.5 18.506 21C16.706 20.5 14.906 20 13 20C8.788 20 8 24.64 8 28C8 31.528 9.654 34.462 12.472 36.574C15.32 38.712 19.38 40 24 40C28.62 40 32.678 38.71 35.528 36.574C38.346 34.46 40 31.528 40 28ZM20 29C20 31.76 18.656 34 17 34C15.344 34 14 31.76 14 29C14 26.24 15.344 24 17 24C18.656 24 20 26.24 20 29ZM31 34C32.656 34 34 31.76 34 29C34 26.24 32.656 24 31 24C29.344 24 28 26.24 28 29C28 31.76 29.344 34 31 34Z" fill="black"/>
</svg>
