<svg width="48" height="48" viewBox="0 0 48 48" fill="none" xmlns="http://www.w3.org/2000/svg">
<path fill-rule="evenodd" clip-rule="evenodd" d="M29.6981 11.316C28.7844 11.3156 27.8821 11.5181 27.0561 11.9088C26.2302 12.2995 25.5013 12.8688 24.9221 13.5754C24.3429 14.2821 23.9278 15.1085 23.7068 15.995C23.4858 16.8816 23.4644 17.8061 23.6441 18.702C23.706 19.0124 23.6933 19.333 23.6071 19.6376C23.521 19.9421 23.3637 20.2219 23.1484 20.4538C22.933 20.6857 22.6657 20.8633 22.3684 20.9718C22.0711 21.0803 21.7522 21.1167 21.4381 21.078C17.1376 20.5497 13.0836 18.7819 9.77012 15.99C9.83212 17.194 10.2501 18.474 11.1561 19.814L12.5141 21.822L10.2841 22.772L9.85412 22.956C10.1741 23.322 10.5581 23.696 10.9881 24.066C11.563 24.558 12.1711 25.0097 12.8081 25.418L12.8301 25.432H12.8321L15.9281 27.31L12.6881 28.93C12.5281 29.01 12.3681 29.082 12.2081 29.146C12.9048 29.7249 13.6723 30.2128 14.4921 30.598L17.2721 31.912L14.9441 33.92C13.6741 35.016 12.3961 35.834 10.7381 36.266C13.281 37.6205 16.119 38.326 19.0001 38.32C28.6121 38.32 36.3521 30.65 36.3521 21.252V20.212L37.2021 19.614C38.5301 18.682 39.4681 17.422 40.1401 15.98H35.8201L35.2761 14.84C34.7752 13.7853 33.9854 12.8944 32.9984 12.2706C32.0114 11.6468 30.8677 11.3158 29.7001 11.316H29.6981ZM7.13812 25.916C6.94939 26.1321 6.80938 26.3863 6.72759 26.6614C6.6458 26.9364 6.62416 27.2258 6.66412 27.51C6.89012 29.112 7.84812 30.492 8.90812 31.546C9.19612 31.832 9.50412 32.106 9.82812 32.368L9.67812 32.408C8.71612 32.648 7.41812 32.698 5.25612 32.488C4.84784 32.4479 4.43711 32.5344 4.07963 32.7356C3.72215 32.9369 3.4352 33.2432 3.2577 33.6131C3.08019 33.9829 3.02072 34.3984 3.08734 34.8032C3.15396 35.208 3.34345 35.5825 3.63012 35.876C5.63166 37.9218 8.02271 39.546 10.6622 40.6528C13.3016 41.7596 16.136 42.3264 18.9981 42.32C30.4241 42.32 39.7961 33.448 40.3261 22.252C42.9061 20.086 44.1961 17.152 44.8921 14.486C44.9695 14.1901 44.978 13.8804 44.9169 13.5807C44.8559 13.281 44.7269 12.9993 44.5399 12.7573C44.3529 12.5152 44.1129 12.3193 43.8383 12.1846C43.5638 12.0498 43.262 11.9798 42.9561 11.98H38.2501C37.099 10.1926 35.4168 8.81086 33.4399 8.02885C31.463 7.24683 29.2908 7.10388 27.2284 7.62007C25.1661 8.13626 23.3173 9.28566 21.9419 10.9067C20.5665 12.5278 19.7335 14.5391 19.5601 16.658C15.8734 15.6983 12.5748 13.6196 10.1181 10.708C9.90056 10.4507 9.62154 10.2526 9.30696 10.132C8.99238 10.0114 8.65243 9.97228 8.31867 10.0182C7.9849 10.064 7.66814 10.1935 7.39777 10.3945C7.1274 10.5955 6.9122 10.8616 6.77212 11.168C5.56012 13.812 5.32812 16.86 6.68012 19.96L6.21212 20.16C5.76427 20.3508 5.4014 20.6984 5.19153 21.1377C4.98166 21.5769 4.9392 22.0777 5.07212 22.546C5.44412 23.85 6.28012 25.002 7.13612 25.916H7.13812Z" fill="black"/>
</svg>
